<?xml version="1.0" encoding="utf-8"?>
<svg xmlns="http://www.w3.org/2000/svg" id="master-artboard" viewBox="0 0 1204.972900390625 980" version="1.1" x="0px" y="0px" style="enable-background:new 0 0 1400 980;" width="1204.972900390625px" height="980px">


<path d="M 531.900009 586.700012 A 103.300003 103.300003 0 0 1 428.600006 690.000015 A 103.300003 103.300003 0 0 1 325.300003 586.700012 A 103.300003 103.300003 0 0 1 428.600006 483.400009 A 103.300003 103.300003 0 0 1 531.900009 586.700012 Z" class="st1" style="fill: rgb(24, 79, 120);" transform="matrix(0.8785887290127168, 0, 0, 0.8785887290127168, 5.1907430866756, 85.1614101941521)"/>
<path d="M 531.900009 363.299988 A 103.300003 103.300003 0 0 1 428.600006 466.599991 A 103.300003 103.300003 0 0 1 325.300003 363.299988 A 103.300003 103.300003 0 0 1 428.600006 259.999985 A 103.300003 103.300003 0 0 1 531.900009 363.299988 Z" class="st2" style="fill: rgb(255, 201, 8);" transform="matrix(0.8785886655379662, 0, 0, 0.8785886655379662, 5.1907512350013, 66.03145006006065)"/>
<path d="M 1074.700027 139.800003 A 103.300003 103.300003 0 0 1 971.400024 243.100006 A 103.300003 103.300003 0 0 1 868.100021 139.800003 A 103.300003 103.300003 0 0 1 971.400024 36.5 A 103.300003 103.300003 0 0 1 1074.700027 139.800003 Z" class="st1" style="fill: rgb(24, 79, 120);" transform="matrix(0.8785885367303019, 0, 0, 0.8785885367303019, -36.15944566638117, 46.90149012574794)"/>
<path d="M 803.300003 810.200012 A 103.300003 103.300003 0 0 1 700 913.500015 A 103.300003 103.300003 0 0 1 596.699997 810.200012 A 103.300003 103.300003 0 0 1 700 706.900009 A 103.300003 103.300003 0 0 1 803.300003 810.200012 Z" class="st2" style="fill: rgb(255, 201, 8);" transform="matrix(0.8785887271545512, 0, 0, 0.8785887271545512, -15.48434426092549, 104.29137033168325)"/>
<path d="M 1345.999954 810.200012 A 103.300003 103.300003 0 0 1 1242.699951 913.500015 A 103.300003 103.300003 0 0 1 1139.399948 810.200012 A 103.300003 103.300003 0 0 1 1242.699951 706.900009 A 103.300003 103.300003 0 0 1 1345.999954 810.200012 Z" class="st1" style="fill: rgb(24, 79, 120);" transform="matrix(0.8785887271545512, 0, 0, 0.8785887271545512, -56.8345336900707, 104.29137033168325)"/>
<path d="M 1345.999954 363.299988 A 103.300003 103.300003 0 0 1 1242.699951 466.599991 A 103.300003 103.300003 0 0 1 1139.399948 363.299988 A 103.300003 103.300003 0 0 1 1242.699951 259.999985 A 103.300003 103.300003 0 0 1 1345.999954 363.299988 Z" class="st2" style="fill: rgb(255, 201, 8);" transform="matrix(0.8785886655379662, 0, 0, 0.8785886655379662, -56.834533392044705, 66.03145006006065)"/>
<path d="M 260.600006 139.800003 A 103.300003 103.300003 0 0 1 157.300003 243.100006 A 103.300003 103.300003 0 0 1 54 139.800003 A 103.300003 103.300003 0 0 1 157.300003 36.5 A 103.300003 103.300003 0 0 1 260.600006 139.800003 Z" class="st1" style="fill: rgb(24, 79, 120);" transform="matrix(0.8785885367303019, 0, 0, 0.8785885367303019, 25.865839197637126, 46.90149012574794)"/>
<path d="M 1074.700027 810.200012 A 103.300003 103.300003 0 0 1 971.400024 913.500015 A 103.300003 103.300003 0 0 1 868.100021 810.200012 A 103.300003 103.300003 0 0 1 971.400024 706.900009 A 103.300003 103.300003 0 0 1 1074.700027 810.200012 Z" class="st3" style="fill: rgb(161, 180, 0);" transform="matrix(0.8785887271545512, 0, 0, 0.8785887271545512, -36.159438389224206, 104.29137033168325)"/>
<path d="M 803.300003 139.800003 A 103.300003 103.300003 0 0 1 700 243.100006 A 103.300003 103.300003 0 0 1 596.699997 139.800003 A 103.300003 103.300003 0 0 1 700 36.5 A 103.300003 103.300003 0 0 1 803.300003 139.800003 Z" class="st3" style="fill: rgb(161, 180, 0);" transform="matrix(0.8785885367303019, 0, 0, 0.8785885367303019, -15.484351592424925, 46.90149012574794)"/>
<path d="M 260.600006 810.200012 A 103.300003 103.300003 0 0 1 157.300003 913.500015 A 103.300003 103.300003 0 0 1 54 810.200012 A 103.300003 103.300003 0 0 1 157.300003 706.900009 A 103.300003 103.300003 0 0 1 260.600006 810.200012 Z" class="st1" style="fill: rgb(24, 79, 120);" transform="matrix(0.8785887271545512, 0, 0, 0.8785887271545512, 25.86584674725815, 104.29137033168325)"/>
<path d="M 803.300003 363.299988 A 103.300003 103.300003 0 0 1 700 466.599991 A 103.300003 103.300003 0 0 1 596.699997 363.299988 A 103.300003 103.300003 0 0 1 700 259.999985 A 103.300003 103.300003 0 0 1 803.300003 363.299988 Z" class="st4" style="fill: rgb(46, 174, 183);" transform="matrix(0.8785886655379662, 0, 0, 0.8785886655379662, -15.484344276463581, 66.03145006006065)"/>
<path d="M 260.600006 363.299988 A 103.300003 103.300003 0 0 1 157.300003 466.599991 A 103.300003 103.300003 0 0 1 54 363.299988 A 103.300003 103.300003 0 0 1 157.300003 259.999985 A 103.300003 103.300003 0 0 1 260.600006 363.299988 Z" class="st4" style="fill: rgb(46, 174, 183);" transform="matrix(0.8785886655379662, 0, 0, 0.8785886655379662, 25.86584674646618, 66.03145006006065)"/>
<path d="M 1074.700027 586.700012 A 103.300003 103.300003 0 0 1 971.400024 690.000015 A 103.300003 103.300003 0 0 1 868.100021 586.700012 A 103.300003 103.300003 0 0 1 971.400024 483.400009 A 103.300003 103.300003 0 0 1 1074.700027 586.700012 Z" class="st4" style="fill: rgb(46, 174, 183);" transform="matrix(0.8785887290127168, 0, 0, 0.8785887290127168, -36.15944646901314, 85.1614101941521)"/>
<path d="M 803.300003 586.700012 A 103.300003 103.300003 0 0 1 700 690.000015 A 103.300003 103.300003 0 0 1 596.699997 586.700012 A 103.300003 103.300003 0 0 1 700 483.400009 A 103.300003 103.300003 0 0 1 803.300003 586.700012 Z" class="st3" style="fill: rgb(161, 180, 0);" transform="matrix(0.8785887290127168, 0, 0, 0.8785887290127168, -15.48435251586125, 85.1614101941521)"/>
<path d="M 260.600006 586.700012 A 103.300003 103.300003 0 0 1 157.300003 690.000015 A 103.300003 103.300003 0 0 1 54 586.700012 A 103.300003 103.300003 0 0 1 157.300003 483.400009 A 103.300003 103.300003 0 0 1 260.600006 586.700012 Z" class="st5" style="fill: rgb(222, 63, 25);" transform="matrix(0.8785887290127168, 0, 0, 0.8785887290127168, 25.865838798649193, 85.1614101941521)"/>
<path d="M 531.900009 139.800003 A 103.300003 103.300003 0 0 1 428.600006 243.100006 A 103.300003 103.300003 0 0 1 325.300003 139.800003 A 103.300003 103.300003 0 0 1 428.600006 36.5 A 103.300003 103.300003 0 0 1 531.900009 139.800003 Z" class="st4" style="fill: rgb(46, 174, 183);" transform="matrix(0.8785885367303019, 0, 0, 0.8785885367303019, 5.190743693169409, 46.90149012574794)"/>
<path d="M 1074.700027 363.299988 A 103.300003 103.300003 0 0 1 971.400024 466.599991 A 103.300003 103.300003 0 0 1 868.100021 363.299988 A 103.300003 103.300003 0 0 1 971.400024 259.999985 A 103.300003 103.300003 0 0 1 1074.700027 363.299988 Z" class="st3" style="fill: rgb(161, 180, 0);" transform="matrix(0.8785886655379662, 0, 0, 0.8785886655379662, -36.15943835741699, 66.03145006006065)"/>
<path d="M 1345.999954 139.800003 A 103.300003 103.300003 0 0 1 1242.699951 243.100006 A 103.300003 103.300003 0 0 1 1139.399948 139.800003 A 103.300003 103.300003 0 0 1 1242.699951 36.5 A 103.300003 103.300003 0 0 1 1345.999954 139.800003 Z" class="st3" style="fill: rgb(161, 180, 0);" transform="matrix(0.8785885367303019, 0, 0, 0.8785885367303019, -56.83454047513835, 46.90149012574794)"/>
<path d="M 1345.999954 586.700012 A 103.300003 103.300003 0 0 1 1242.699951 690.000015 A 103.300003 103.300003 0 0 1 1139.399948 586.700012 A 103.300003 103.300003 0 0 1 1242.699951 483.400009 A 103.300003 103.300003 0 0 1 1345.999954 586.700012 Z" class="st2" style="fill: rgb(255, 201, 8);" transform="matrix(0.8785887290127168, 0, 0, 0.8785887290127168, -56.83454159471283, 85.1614101941521)"/>
<path d="M 531.900009 810.200012 A 103.300003 103.300003 0 0 1 428.600006 913.500015 A 103.300003 103.300003 0 0 1 325.300003 810.200012 A 103.300003 103.300003 0 0 1 428.600006 706.900009 A 103.300003 103.300003 0 0 1 531.900009 810.200012 Z" class="st4" style="fill: rgb(46, 174, 183);" transform="matrix(0.8785887271545512, 0, 0, 0.8785887271545512, 5.190751297884697, 104.29137033168325)"/>

<path class="st0" d="M224.4,357.5h-14.9c0,0,0,0,0,0h-22.4l34.2-26.4c5.8-4.5,3.9-8.1-4.4-8.1h-29.8v-5.7c0-6.4-6.7-11.5-14.9-11.5&#10;&#9;h-29.8c-8.2,0-14.9,5.1-14.9,11.5v5.7H97.6c-8.2,0-10.2,3.6-4.4,8.1l34.2,26.4h-22.4c0,0,0,0,0,0H90.2c-4.1,0-7.5,2.6-7.5,5.7&#10;&#9;s3.3,5.7,7.5,5.7v40.2c0,6.4,6.7,11.5,14.9,11.5h104.4c8.2,0,14.9-5.1,14.9-11.5V369l0,0c4.1,0,7.5-2.6,7.5-5.7&#10;&#9;S228.5,357.5,224.4,357.5z M118.7,334.5h23.7v-17.2h29.8v17.2h23.7l-38.6,29.7L118.7,334.5z M209.5,409.3H105.1V369l0,0v-11.5h22.4&#10;&#9;l19.3,14.9c5.8,4.5,15.3,4.5,21.1,0l19.3-14.9h22.4V409.3z" style="fill: rgb(255, 255, 255);" transform="matrix(0.8785886655379662, 0, 0, 0.8785886655379662, 25.86584674646618, 66.03145006006065)"/>
<g id="_x36_1._Download" transform="matrix(0.8785887271545512, 0, 0, 0.8785887271545512, -15.48434426092549, 104.29137033168325)">
	<g>
		<path class="st0" d="M758.5,797.2h-13c0,0,0,0,0,0H713l14.9-14.9c2.5-2.5,1.7-4.6-1.9-4.6h-13v-19.5c0-3.6-2.9-6.5-6.5-6.5h-13&#10;&#9;&#9;&#9;c-3.6,0-6.5,2.9-6.5,6.5v19.5h-13c-3.6,0-4.4,2.1-1.9,4.6l14.9,14.9h-32.5c0,0,0,0,0,0h-13c-3.6,0-6.5,2.9-6.5,6.5&#10;&#9;&#9;&#9;s2.9,6.5,6.5,6.5v45.5c0,7.2,5.8,13,13,13h91c7.2,0,13-5.8,13-13v-45.5h0c3.6,0,6.5-2.9,6.5-6.5S762.1,797.2,758.5,797.2z&#10;&#9;&#9;&#9; M745.5,855.7h-91v-45.5l0,0v-13H687l8.4,8.4c2.5,2.5,6.7,2.5,9.2,0l8.4-8.4h32.5V855.7z" style="fill: rgb(255, 255, 255);"/>
	</g>
</g>
<path class="st0" d="M1245.5,432.5l24.9-25.4c0.9-0.9,1-2.1,0.4-3.1c-0.6-1-1.8-1.6-3.2-1.6h-8.2v-78.2h8.2c1.4,0,2.6-0.6,3.2-1.6&#10;&#9;c0.6-1,0.4-2.2-0.4-3.1l-24.9-25.4c-0.7-0.7-1.7-1.1-2.8-1.1s-2.1,0.4-2.8,1.1l-24.9,25.4c-0.9,0.9-1,2.1-0.4,3.1&#10;&#9;c0.6,1,1.8,1.6,3.2,1.6h8.2v78.2h-8.2c-1.4,0-2.6,0.6-3.2,1.6c-0.6,1-0.4,2.2,0.4,3.1l24.9,25.4c0.7,0.7,1.7,1.1,2.8,1.1&#10;&#9;S1244.8,433.2,1245.5,432.5z" style="fill: rgb(255, 255, 255);" transform="matrix(0.8785886655379662, 0, 0, 0.8785886655379662, -56.834533392044705, 66.03145006006065)"/>
<path class="st0" d="M81.6,553.5l73.2,91.8c1.2,1.5,3.8,1.5,5,0l73.2-91.8c0.9-1.1,1.1-2.7,0.7-4.2c-0.1-0.3-0.2-0.5-0.3-0.7&#10;&#9;c-0.6-1-1.6-1.7-2.8-1.7H84.1c-1.2,0-2.3,0.6-2.8,1.7c-0.1,0.2-0.2,0.4-0.3,0.7C80.5,550.8,80.7,552.4,81.6,553.5z" style="fill: rgb(255, 255, 255);" transform="matrix(0.8785887290127168, 0, 0, 0.8785887290127168, 25.865838798649193, 85.1614101941521)"/>
<path class="st0" d="M504.3,619.9l-73.2-91.8c-1.2-1.5-3.8-1.5-5,0L353,619.9c-0.9,1.1-1.1,2.7-0.7,4.2c0.1,0.3,0.2,0.5,0.3,0.7&#10;&#9;c0.6,1,1.6,1.7,2.8,1.7h146.5c1.2,0,2.3-0.6,2.8-1.7c0.1-0.2,0.2-0.4,0.3-0.7C505.5,622.6,505.2,621,504.3,619.9z" style="fill: rgb(255, 255, 255);" transform="matrix(0.8785887290127168, 0, 0, 0.8785887290127168, 5.1907430866756, 85.1614101941521)"/>
<path class="st0" d="M769.6,531.7h-17.9c-1.7,0-3,1.4-3,3v63.7h-66.3v-16.3c0-1.1-0.6-2.1-1.5-2.6c-0.9-0.5-2.1-0.5-3,0l-48.9,28.2&#10;&#9;c-0.9,0.5-1.5,1.5-1.5,2.6s0.6,2.1,1.5,2.6l48.9,28.2c0.5,0.3,1,0.4,1.5,0.4c0.5,0,1-0.1,1.5-0.4c0.9-0.5,1.5-1.5,1.5-2.6v-16.3&#10;&#9;h87.2c1.7,0,3-1.4,3-3v-84.6C772.6,533.1,771.2,531.7,769.6,531.7z" style="fill: rgb(255, 255, 255);" transform="matrix(0.8785887290127168, 0, 0, 0.8785887290127168, -15.48435251586125, 85.1614101941521)"/>
<path class="st0" d="M1170.1,758.2v84.6c0,1.7,1.4,3,3,3h87.2v16.3c0,1.1,0.6,2.1,1.5,2.6c0.5,0.3,1,0.4,1.5,0.4&#10;&#9;c0.5,0,1-0.1,1.5-0.4l48.9-28.2c0.9-0.5,1.5-1.5,1.5-2.6s-0.6-2.1-1.5-2.6l-48.9-28.2c-0.9-0.5-2.1-0.5-3,0&#10;&#9;c-0.9,0.5-1.5,1.5-1.5,2.6v16.3H1194v-63.7c0-1.7-1.4-3-3-3h-17.9C1171.5,755.2,1170.1,756.5,1170.1,758.2z" style="fill: rgb(255, 255, 255);" transform="matrix(0.8785887271545512, 0, 0, 0.8785887271545512, -56.8345336900707, 104.29137033168325)"/>
<path class="st0" d="M495,339.4c0-26.4-21.5-47.8-47.8-47.8s-47.8,21.5-47.8,47.8l0,51.7l-19.9-20c-0.5-0.5-1.2-0.8-1.9-0.8&#10;&#9;c-0.7,0-1.4,0.3-1.9,0.8l-12.4,12.4c-1.1,1.1-1.1,2.8,0,3.9l46.6,46.6c1.1,1.1,2.8,1.1,3.9,0l46.6-46.6c0.5-0.5,0.8-1.2,0.8-1.9&#10;&#9;c0-0.7-0.3-1.4-0.8-1.9l-12.4-12.4c-1-1-2.9-1-3.9,0l-19.9,20l0-51.7c0-12.7,10.3-23,23-23c12.7,0,23,10.3,23,23l0,44.7&#10;&#9;c0,1.5,1.2,2.8,2.8,2.8h19.2c1.5,0,2.8-1.2,2.8-2.8L495,339.4z" style="fill: rgb(255, 255, 255);" transform="matrix(0.8785886655379662, 0, 0, 0.8785886655379662, 5.1907512350013, 66.03145006006065)"/>
<path class="st0" d="M766.3,342.4c0-1.5-1.2-2.8-2.8-2.8h-19.2c-1.5,0-2.8,1.2-2.8,2.8l0,44.7c0,12.7-10.3,23-23,23&#10;&#9;c-12.7,0-23-10.3-23-23l0-51.7l19.9,20c1,1,2.9,1,3.9,0l12.4-12.4c0.5-0.5,0.8-1.2,0.8-1.9c0-0.7-0.3-1.4-0.8-1.9L685,292.4&#10;&#9;c-1.1-1.1-2.8-1.1-3.9,0l-46.6,46.6c-1.1,1.1-1.1,2.8,0,3.9l12.4,12.4c0.5,0.5,1.2,0.8,1.9,0.8c0.7,0,1.4-0.3,1.9-0.8l19.9-20&#10;&#9;l0,51.7c0,26.4,21.5,47.8,47.8,47.8s47.8-21.5,47.8-47.8L766.3,342.4z" style="fill: rgb(255, 255, 255);" transform="matrix(0.8785886655379662, 0, 0, 0.8785886655379662, -15.484344276463581, 66.03145006006065)"/>
<path class="st0" d="M1026.5,367.8c-0.5-0.8-1.3-1.3-2.3-1.3h-13.4v-61.6c0-1.5-1.2-2.6-2.6-2.6H939c-0.9,0-1.7,0.4-2.2,1.1&#10;&#9;L916.4,332c-0.6,0.8-0.7,1.9-0.2,2.7c0.5,0.9,1.4,1.4,2.4,1.4h58.4v30.4h-13.4c-0.9,0-1.8,0.5-2.3,1.3c-0.5,0.8-0.5,1.8,0,2.6&#10;&#9;l30.3,52.5c0.5,0.8,1.3,1.3,2.3,1.3c0.9,0,1.8-0.5,2.3-1.3l30.3-52.5C1026.9,369.6,1026.9,368.6,1026.5,367.8z" style="fill: rgb(255, 255, 255);" transform="matrix(0.8785886655379662, 0, 0, 0.8785886655379662, -36.15943835741699, 66.03145006006065)"/>
<path class="st0" d="M916.3,582.2c0.5,0.8,1.3,1.3,2.3,1.3h13.4v61.6c0,1.5,1.2,2.6,2.6,2.6h69.2c0.9,0,1.7-0.4,2.2-1.1l20.4-28.6&#10;&#9;c0.6-0.8,0.7-1.9,0.2-2.7c-0.5-0.9-1.4-1.4-2.4-1.4h-58.4v-30.4h13.4c0.9,0,1.8-0.5,2.3-1.3c0.5-0.8,0.5-1.8,0-2.6l-30.3-52.5&#10;&#9;c-0.5-0.8-1.3-1.3-2.3-1.3c-0.9,0-1.8,0.5-2.3,1.3l-30.3,52.5C915.8,580.4,915.8,581.4,916.3,582.2z" style="fill: rgb(255, 255, 255);" transform="matrix(0.8785887290127168, 0, 0, 0.8785887290127168, -36.15944646901314, 85.1614101941521)"/>
<path class="st0" d="M405.4,882.4l70.1-70.1c1.1-1.1,1.1-3.1,0-4.2L405.4,738c-0.6-0.6-1.3-0.9-2.1-0.9c-0.8,0-1.5,0.3-2.1,0.9&#10;&#9;l-19.3,19.3c-0.6,0.6-0.9,1.3-0.9,2.1s0.3,1.5,0.9,2.1l48.7,48.7l-48.7,48.7c-1.1,1.1-1.1,3.1,0,4.2l19.3,19.3&#10;&#9;C402.3,883.5,404.2,883.5,405.4,882.4z" style="fill: rgb(255, 255, 255);" transform="matrix(0.8785887271545512, 0, 0, 0.8785887271545512, 5.190751297884697, 104.29137033168325)"/>
<path class="st0" d="M184.8,882.4l19.3-19.3c1.1-1.1,1.1-3.1,0-4.2l-48.7-48.7l48.7-48.7c0.6-0.6,0.9-1.3,0.9-2.1s-0.3-1.5-0.9-2.1&#10;&#9;L184.8,738c-0.6-0.6-1.3-0.9-2.1-0.9s-1.5,0.3-2.1,0.9l-70.1,70.1c-1.1,1.1-1.1,3.1,0,4.2l70.1,70.1&#10;&#9;C181.7,883.5,183.6,883.5,184.8,882.4z" style="fill: rgb(255, 255, 255);" transform="matrix(0.8785887271545512, 0, 0, 0.8785887271545512, 25.86584674725815, 104.29137033168325)"/>
<path class="st0" d="M230.6,137l-64.1-37c-1-0.6-2.2-0.6-3.2,0c-1,0.6-1.6,1.6-1.6,2.8v15.5h0c-0.5,0.1-45.3,6.3-76.7,49.2l-2,2.8&#10;&#9;c-0.9,1.2-0.8,2.9,0.3,4c1,1.1,2.7,1.4,4,0.6l2.9-1.7c0.6-0.3,1.8-1,1.8-1.1c16.9-10.1,33.6-15.2,49.6-15.2c11.9,0,19.1,3,20,3.4&#10;&#9;l0,16.5c0,1.2,0.6,2.2,1.6,2.8c0.5,0.3,1.1,0.4,1.6,0.4c0.6,0,1.1-0.1,1.6-0.4l64.1-37c1-0.6,1.6-1.6,1.6-2.8S231.6,137.6,230.6,137&#10;&#9;z" style="fill: rgb(255, 255, 255);" transform="matrix(0.8785885367303019, 0, 0, 0.8785885367303019, 25.865839197637126, 46.90149012574794)"/>
<path class="st0" d="M353.8,139.8c0,1.2,0.6,2.2,1.6,2.8l64.1,37c0.5,0.3,1.1,0.4,1.6,0.4c0.6,0,1.1-0.1,1.6-0.4&#10;&#9;c1-0.6,1.6-1.6,1.6-2.8l0-16.5c0.9-0.4,8.1-3.4,20-3.4c16,0,32.6,5.1,49.6,15.2c0.1,0,1.3,0.7,1.8,1.1l2.9,1.7c1.3,0.8,3,0.5,4-0.6&#10;&#9;c1-1.1,1.1-2.8,0.3-4l-2-2.8c-31.4-42.9-76.3-49.2-76.7-49.2h0v-15.5c0-1.2-0.6-2.2-1.6-2.8c-1-0.6-2.2-0.6-3.2,0l-64.1,37&#10;&#9;C354.4,137.6,353.8,138.7,353.8,139.8z" style="fill: rgb(255, 255, 255);" transform="matrix(0.8785885367303019, 0, 0, 0.8785885367303019, 5.190743693169409, 46.90149012574794)"/>
<g transform="matrix(0.8785885367303019, 0, 0, 0.8785885367303019, -15.484351592424925, 46.90149012574794)">
	<path class="st0" d="M640,120h86.7l-16,16c-0.6,0.6-0.9,1.3-0.9,2.1s0.3,1.5,0.9,2.1l9.3,9.3c0.6,0.6,1.3,0.9,2.1,0.9&#10;&#9;&#9;c0.8,0,1.5-0.3,2.1-0.9l37.4-37.4c1.1-1.1,1.1-3,0-4.2l-37.4-37.4c-1.1-1.1-3.1-1.1-4.2,0l-9.3,9.3c-1.1,1.1-1.1,3,0,4.2l16,16H640&#10;&#9;&#9;c-1.6,0-2.9,1.3-2.9,2.9v14.3C637.1,118.7,638.4,120,640,120z" style="fill: rgb(255, 255, 255);"/>
	<path class="st0" d="M760,159.6h-86.7l16-16c1.1-1.1,1.1-3,0-4.2l-9.3-9.3c-0.6-0.6-1.3-0.9-2.1-0.9c-0.8,0-1.5,0.3-2.1,0.9&#10;&#9;&#9;l-37.4,37.4c-1.1,1.1-1.1,3,0,4.2l37.4,37.4c0.6,0.6,1.3,0.9,2.1,0.9c0.8,0,1.5-0.3,2.1-0.9l9.3-9.3c0.6-0.6,0.9-1.3,0.9-2.1&#10;&#9;&#9;s-0.3-1.5-0.9-2.1l-16-16H760c1.6,0,2.9-1.3,2.9-2.9v-14.3C762.9,160.9,761.6,159.6,760,159.6z" style="fill: rgb(255, 255, 255);"/>
</g>
<g transform="matrix(0.8785885367303019, 0, 0, 0.8785885367303019, -36.15944566638117, 46.90149012574794)">
	<path class="st0" d="M1040.2,84c-0.8-0.6-1.9-0.7-2.8-0.3l-15.5,7.1C1007.2,77.3,988.3,70,968.5,70c-22.3,0-43.8,9.5-58.7,26.1&#10;&#9;&#9;c-0.5,0.6-0.8,1.3-0.7,2.1c0,0.8,0.4,1.5,1,2l16.2,14c1.2,1,2.9,0.9,4-0.2c9.8-10.7,23.8-16.9,38.3-16.9c8.8,0,17.5,2.3,25.2,6.6&#10;&#9;&#9;l-11.2,5.1c-0.9,0.4-1.6,1.3-1.7,2.3c-0.1,1,0.4,2,1.2,2.6l49.1,35.1c0.5,0.4,1.1,0.5,1.7,0.5c0.4,0,0.8-0.1,1.2-0.3&#10;&#9;&#9;c0.9-0.4,1.6-1.3,1.7-2.3l5.8-60C1041.5,85.6,1041,84.6,1040.2,84z" style="fill: rgb(255, 255, 255);"/>
	<path class="st0" d="M1016.6,165.5c-1.2-1-2.9-0.9-4,0.2c-9.8,10.7-23.8,16.9-38.3,16.9c-8.8,0-17.5-2.3-25.2-6.6l11.2-5.1&#10;&#9;&#9;c0.9-0.4,1.6-1.3,1.7-2.3s-0.4-2-1.2-2.6L911.6,131c-0.8-0.6-1.9-0.7-2.8-0.3c-0.9,0.4-1.6,1.3-1.7,2.3l-5.8,60&#10;&#9;&#9;c-0.1,1,0.4,2,1.2,2.6c0.8,0.6,1.9,0.7,2.8,0.3l15.5-7.1c14.6,13.4,33.6,20.8,53.4,20.8c22.3,0,43.8-9.5,58.7-26.1&#10;&#9;&#9;c0.5-0.6,0.8-1.3,0.7-2.1c0-0.8-0.4-1.5-1-2L1016.6,165.5z" style="fill: rgb(255, 255, 255);"/>
</g>
<g transform="matrix(0.8785885367303019, 0, 0, 0.8785885367303019, -56.83454047513835, 46.90149012574794)">
	<path class="st0" d="M1194.5,130.8h96.4c1.2,0,2.4-0.7,2.9-1.8c0.5-1.1,0.4-2.4-0.4-3.4l-48.2-60.4c-0.6-0.8-1.5-1.2-2.5-1.2&#10;&#9;&#9;c-1,0-1.9,0.4-2.5,1.2l-48.2,60.4c-0.8,1-0.9,2.3-0.4,3.4C1192.1,130.1,1193.3,130.8,1194.5,130.8z" style="fill: rgb(255, 255, 255);"/>
	<path class="st0" d="M1290.9,148.9h-96.4c-1.2,0-2.4,0.7-2.9,1.8c-0.5,1.1-0.4,2.4,0.4,3.4l48.2,60.4c0.6,0.8,1.5,1.2,2.5,1.2&#10;&#9;&#9;c1,0,1.9-0.4,2.5-1.2l48.2-60.4c0.8-1,0.9-2.3,0.4-3.4C1293.3,149.6,1292.2,148.9,1290.9,148.9z" style="fill: rgb(255, 255, 255);"/>
</g>
<g transform="matrix(0.8785887271545512, 0, 0, 0.8785887271545512, -36.159438389224206, 104.29137033168325)">
	<path class="st0" d="M960,756.3c-1.1-0.5-2.5-0.4-3.5,0.4l-63.8,50.9c-0.8,0.6-1.2,1.6-1.2,2.6c0,1,0.5,1.9,1.2,2.6l63.8,50.9&#10;&#9;&#9;c0.6,0.5,1.3,0.7,2,0.7c0.5,0,1-0.1,1.4-0.3c1.1-0.5,1.8-1.7,1.8-2.9V759.2C961.8,758,961.1,756.9,960,756.3z" style="fill: rgb(255, 255, 255);"/>
	<path class="st0" d="M1050,807.6l-63.8-50.9c-1-0.8-2.3-0.9-3.5-0.4c-1.1,0.5-1.8,1.7-1.8,2.9v101.9c0,1.3,0.7,2.4,1.8,2.9&#10;&#9;&#9;c0.5,0.2,0.9,0.3,1.4,0.3c0.7,0,1.4-0.2,2-0.7l63.8-50.9c0.8-0.6,1.2-1.6,1.2-2.6C1051.3,809.2,1050.8,808.2,1050,807.6z" style="fill: rgb(255, 255, 255);"/>
</g>
<g transform="matrix(0.8785887290127168, 0, 0, 0.8785887290127168, -56.83454159471283, 85.1614101941521)">
	<path class="st0" d="M1322.2,618.4l-42.3-67.4c-1.3-2.1-4-2.1-5.3,0l-42.3,67.4c-0.8,1.3-1,3.1-0.4,4.6c0.6,1.5,1.8,2.5,3.1,2.5&#10;&#9;&#9;h84.6c1.3,0,2.5-1,3.1-2.5C1323.2,621.5,1323,619.7,1322.2,618.4z" style="fill: rgb(255, 255, 255);"/>
	<path class="st0" d="M1253.6,550.4c-0.6-1.5-1.8-2.5-3.1-2.5h-84.6c-1.3,0-2.5,1-3.1,2.5c-0.6,1.5-0.4,3.3,0.4,4.6l42.3,67.4&#10;&#9;&#9;c0.6,1,1.6,1.6,2.7,1.6s2-0.6,2.7-1.6l42.3-67.4C1254,553.7,1254.1,551.9,1253.6,550.4z" style="fill: rgb(255, 255, 255);"/>
</g>
</svg>
